<svg width="50" height="50" viewBox="0 0 50 50" fill="none" xmlns="http://www.w3.org/2000/svg">
<path fill-rule="evenodd" clip-rule="evenodd" d="M35.5918 23.7317C36.0961 24.2195 36.0961 25 35.7935 25.4878C35.4909 25.7805 35.1884 25.878 34.8858 25.878C34.4824 25.878 34.1798 25.6829 33.9781 25.4878L25.8087 17.5854V35.7317C25.8087 36.122 25.607 36.4146 25.4053 36.6098C25.1027 36.9024 24.8002 37 24.4976 37C24.0942 37 23.7916 36.8049 23.5899 36.6098C23.2873 36.3171 23.1865 36.0244 23.1865 35.7317V17.7805L15.2188 25.4878C14.9163 25.7805 14.6137 25.878 14.3111 25.878C13.9077 25.878 13.6051 25.6829 13.4034 25.4878C13.1009 25.1951 13 24.9024 13 24.6098C13 24.2195 13.2017 23.9268 13.4034 23.7317L24.4976 13L35.5918 23.7317Z" fill="#FAFAFA"/>
</svg>
