<svg width="50" height="50" viewBox="0 0 50 50" fill="none" xmlns="http://www.w3.org/2000/svg">
<path fill-rule="evenodd" clip-rule="evenodd" d="M18 14.4047L7 25.4047L18 36.4047C18.2 36.6047 18.5 36.8047 18.9 36.8047C19.2 36.8047 19.5 36.7047 19.8 36.4047C20 36.2047 20.2 35.9047 20.2 35.5047C20.2 35.2047 20.1 34.9047 19.8 34.6047L11.9 26.7047H30.3C30.6 26.7047 30.9 26.6047 31.2 26.3047C31.4 26.1047 31.6 25.8047 31.6 25.4047C31.6 25.1047 31.5 24.8047 31.2 24.5047C31 24.3047 30.7 24.1047 30.3 24.1047H11.7L19.8 16.0047C20 15.8047 20.2 15.5047 20.2 15.1047C20.2 14.8047 20.1 14.5047 19.8 14.2047C19.3 13.9047 18.5 13.9047 18 14.4047Z" fill="#666666"/>
<path fill-rule="evenodd" clip-rule="evenodd" d="M31.5 36.2047C27.9 36.2047 24.5 34.4047 22.6 31.4047C22.2 30.8047 22.4 30.0047 23 29.7047C23.6 29.3047 24.4 29.5047 24.7 30.1047C26.2 32.4047 28.8 33.8047 31.5 33.8047C36 33.8047 39.7 30.1047 39.7 25.6047C39.7 21.1047 36 17.4047 31.5 17.4047C28.8 17.4047 26.2 18.8047 24.7 21.0047C24.3 21.6047 23.5 21.7047 23 21.3047C22.4 20.9047 22.3 20.1047 22.7 19.6047C24.7 16.6047 28 14.8047 31.6 14.8047C37.5 14.8047 42.3 19.6047 42.3 25.5047C42.3 31.4047 37.4 36.2047 31.5 36.2047Z" fill="#666666"/>
</svg>
