<svg width="50" height="50" viewBox="0 0 50 50" fill="none" xmlns="http://www.w3.org/2000/svg">
<path fill-rule="evenodd" clip-rule="evenodd" d="M24 14.4047L13 25.4047L24 36.4047C24.2 36.6047 24.5 36.8047 24.9 36.8047C25.2 36.8047 25.5 36.7047 25.8 36.4047C26 36.2047 26.2 35.9047 26.2 35.5047C26.2 35.2047 26.1 34.9047 25.8 34.6047L17.9 26.7047H36.3C36.6 26.7047 36.9 26.6047 37.2 26.3047C37.4 26.1047 37.6 25.8047 37.6 25.4047C37.6 25.1047 37.5 24.8047 37.2 24.5047C37 24.3047 36.7 24.1047 36.3 24.1047H17.7L25.8 16.0047C26 15.8047 26.2 15.5047 26.2 15.1047C26.2 14.8047 26.1 14.5047 25.8 14.2047C25.3 13.9047 24.5 13.9047 24 14.4047Z" fill="#24B1FF"/>
</svg>
