<svg width="50" height="50" viewBox="0 0 50 50" fill="none" xmlns="http://www.w3.org/2000/svg">
<path fill-rule="evenodd" clip-rule="evenodd" d="M11 39.8758H25.89V20.4768H11V39.8758ZM12.276 38.5998H24.613V21.7538H12.276V38.5998Z" fill="#24B1FF"/>
<path fill-rule="evenodd" clip-rule="evenodd" d="M38.1417 16.8183C36.6107 13.8403 34.0577 11.6283 30.9097 10.6073C25.6347 8.90528 19.8487 10.8623 16.7007 15.4573C16.6157 15.6273 16.6157 15.7973 16.6157 15.8823C16.6157 16.0523 16.7007 16.2223 16.8707 16.3083C17.0407 16.3933 17.2107 16.4783 17.2967 16.3933C17.4667 16.3933 17.6367 16.3083 17.7217 16.1373C20.5297 12.0533 25.8047 10.2673 30.5697 11.7983C36.5247 13.7553 39.7587 20.1363 37.8017 26.0923C36.7807 29.1553 34.5677 31.6233 31.5907 32.8993L32.6967 30.4313C32.7817 30.2613 32.7817 30.0913 32.6967 30.0063C32.6117 29.8363 32.5257 29.7513 32.3557 29.6663C32.1857 29.5813 32.0157 29.5813 31.9307 29.6663C31.7607 29.7513 31.6757 29.8363 31.5907 30.0063L29.7187 34.3453L34.0577 36.2173C34.1427 36.2173 34.2277 36.3023 34.3127 36.3023C34.5677 36.3023 34.7387 36.2173 34.9087 35.9623C34.9937 35.7923 34.9937 35.6213 34.9087 35.5363C34.8237 35.3663 34.7387 35.2813 34.5677 35.1963L31.8457 34.0053L32.1857 33.8353C35.4187 32.3883 37.8017 29.6663 38.9077 26.3473C39.9287 23.1993 39.6727 19.8813 38.1417 16.8183Z" fill="#24B1FF"/>
</svg>
