<svg width="50" height="50" viewBox="0 0 50 50" fill="none" xmlns="http://www.w3.org/2000/svg">
<path d="M27.0368 24.9853L34.046 17.9762C34.6051 17.417 34.6051 16.4785 34.046 15.9193C33.4868 15.3602 32.5483 15.3602 31.9892 15.9193L24.98 22.9285L17.9709 15.9193C17.4118 15.3602 16.4732 15.3602 15.9141 15.9193C15.355 16.4785 15.355 17.417 15.9141 17.9762L22.9232 24.9853L15.9141 31.9944C15.355 32.5536 15.355 33.4921 15.9141 34.0512C16.1937 34.3308 16.5731 34.4706 16.9525 34.4706C17.3319 34.4706 17.6913 34.3308 17.9909 34.0512L25 27.0421L32.0091 34.0512C32.2887 34.3308 32.6681 34.4706 33.0475 34.4706C33.4269 34.4706 33.7864 34.3308 34.0859 34.0512C34.645 33.4921 34.645 32.5536 34.0859 31.9944L27.0368 24.9853Z" fill="#666666"/>
</svg>
