<svg width="50" height="50" viewBox="0 0 50 50" fill="none" xmlns="http://www.w3.org/2000/svg">
<path fill-rule="evenodd" clip-rule="evenodd" d="M21.9925 21.9987C22.3536 21.9272 22.6249 21.7604 22.8036 21.5028C22.9934 21.2204 23.0406 20.9299 22.9629 20.5485C22.8879 20.1846 22.7156 19.9105 22.4517 19.7364C22.1758 19.5549 21.8814 19.5081 21.4971 19.5851L18.311 20.1828L18.5101 19.7593C19.0082 18.7005 19.7138 17.7701 20.5777 17.0258C20.8351 16.8039 21.1064 16.5986 21.3906 16.4116C25.1749 13.9192 30.3027 14.9394 32.8212 18.6849C33.2777 19.3642 33.6295 20.1076 33.8656 20.8932C34.1629 21.7109 34.7397 21.9428 35.1768 21.8044C35.5971 21.6714 35.9453 21.1792 35.7277 20.4129C35.4369 19.3825 35.0082 18.4402 34.4508 17.6106C31.3351 12.9741 24.9888 11.7119 20.3055 14.7974C18.8416 15.7599 17.6499 17.0918 16.8573 18.6501L16.5369 19.2808L15.8675 15.7929C15.7934 15.4326 15.6221 15.1594 15.3573 14.9853C15.0897 14.8093 14.8036 14.7598 14.4351 14.8285C13.9471 15.0834 13.5184 15.7571 13.6564 16.4336L15.0156 23.3444L21.9925 21.9987Z" fill="#24B1FF"/>
<path fill-rule="evenodd" clip-rule="evenodd" d="M37.0595 31.662L35.6993 24.7512L28.7233 26.0969C28.3613 26.1684 28.0882 26.3352 27.9122 26.5919C27.7224 26.8742 27.6752 27.1657 27.753 27.5461C27.828 27.911 27.9993 28.1841 28.2632 28.3583C28.54 28.5398 28.8345 28.5866 29.2187 28.5096L32.4048 27.9119L32.2057 28.3354C31.5595 29.7104 30.5641 30.8681 29.3252 31.684C25.5409 34.1764 20.4132 33.1561 17.8946 29.4097C17.4382 28.7305 17.0872 27.988 16.8502 27.2024C16.553 26.3847 15.9761 26.1519 15.5391 26.2903C15.1206 26.4232 14.7706 26.9155 14.9882 27.6827C15.278 28.7131 15.7076 29.6554 16.2641 30.4841C19.3807 35.1206 25.7261 36.3828 30.4104 33.2982C31.8752 32.3348 33.0659 31.002 33.8585 29.4446L34.1789 28.8139L34.8483 32.3018C34.9215 32.663 35.0937 32.9352 35.3585 33.1103C35.6261 33.2863 35.9122 33.3349 36.2807 33.2671C36.7687 33.0122 37.1928 32.3174 37.0595 31.662Z" fill="#24B1FF"/>
</svg>
